<?xml version="1.0" standalone="no"?>
<!DOCTYPE svg PUBLIC "-//W3C//DTD SVG 20010904//EN"
 "http://www.w3.org/TR/2001/REC-SVG-20010904/DTD/svg10.dtd">
<svg version="1.0" xmlns="http://www.w3.org/2000/svg"
 width="752.000000pt" height="728.000000pt" viewBox="0 0 752.000000 728.000000"
 preserveAspectRatio="xMidYMid meet">

<rect width="100%" height="100%" fill="white"/>
<g transform="translate(0.000000,728.000000) scale(0.100000,-0.100000)"
fill="#000000" stroke="none">
<path d="M3430 6215 c-96 -57 -182 -109 -190 -114 -12 -7 -7 -19 29 -72 25
-35 91 -133 148 -216 57 -84 107 -153 112 -153 9 0 4 -11 126 250 53 113 108
228 123 257 21 43 23 54 13 67 -8 9 -17 16 -21 16 -4 0 -34 16 -66 35 -32 19
-67 35 -78 35 -12 0 -100 -47 -196 -105z"/>
<path d="M3841 6118 c-16 -35 -68 -148 -116 -253 -48 -104 -96 -209 -105 -231
-16 -36 -22 -41 -44 -37 -14 3 -40 0 -57 -6 -38 -13 -22 -30 -166 179 -59 85
-126 183 -150 217 l-44 63 -42 -21 c-39 -20 -177 -100 -447 -259 -63 -37 -295
-172 -515 -300 -220 -128 -454 -264 -520 -302 -66 -39 -163 -96 -215 -126
-140 -81 -130 -67 -130 -199 0 -75 5 -125 14 -146 13 -29 72 -104 264 -332 37
-43 99 -118 137 -166 39 -47 110 -135 160 -195 49 -60 173 -210 274 -334 251
-305 283 -341 298 -338 8 2 42 66 77 143 35 77 107 232 160 345 54 113 141
297 193 410 52 113 131 282 175 375 189 401 241 511 333 710 54 116 104 217
112 225 12 13 17 13 43 -2 28 -16 29 -15 44 5 16 21 17 21 29 3 32 -49 148
-219 312 -457 99 -144 222 -323 273 -398 126 -183 134 -191 147 -151 3 11 26
54 50 97 23 43 140 256 258 473 118 217 224 411 236 431 20 34 20 37 4 51 -10
8 -211 128 -448 265 -236 138 -457 267 -490 287 -33 20 -63 36 -68 36 -4 0
-20 -28 -36 -62z"/>
<path d="M4942 5495 c-12 -25 -132 -248 -267 -495 -134 -247 -257 -474 -272
-504 -29 -59 -45 -68 -65 -36 -12 19 -13 19 -34 -1 -15 -14 -27 -18 -38 -12
-8 4 -50 60 -94 123 -43 63 -168 246 -277 405 -110 160 -232 338 -271 397 -53
79 -75 104 -82 95 -6 -7 -81 -163 -167 -347 -87 -184 -193 -411 -237 -505 -44
-93 -96 -204 -115 -245 -19 -41 -68 -145 -108 -230 -40 -85 -82 -175 -93 -200
-11 -25 -46 -99 -77 -165 -70 -148 -207 -449 -225 -492 -13 -35 -20 -39 -37
-22 -8 8 -17 8 -31 0 -57 -31 -63 -26 -273 234 -503 621 -869 1065 -878 1065
-6 0 -4 -2293 2 -2321 3 -8 28 -29 58 -46 30 -17 137 -79 238 -137 101 -58
190 -106 197 -106 8 0 14 6 14 13 1 6 130 289 288 627 250 535 291 615 311
618 13 2 28 -1 34 -7 8 -8 17 -5 33 10 l22 20 229 -278 c126 -153 251 -305
278 -339 28 -33 77 -92 109 -132 l60 -71 81 152 c45 84 93 172 107 197 14 25
166 304 338 620 172 316 347 638 390 715 43 77 97 178 120 223 24 46 49 86 57
89 7 3 23 -1 36 -10 20 -13 24 -12 40 10 l19 24 37 -53 c67 -93 115 -163 464
-671 188 -274 386 -562 440 -640 54 -78 123 -178 153 -222 55 -82 97 -135 107
-135 3 0 28 45 56 100 28 54 101 188 162 297 61 109 128 227 148 263 l36 65 3
762 3 762 -148 87 c-81 48 -195 115 -253 149 -58 34 -181 106 -275 160 -93 54
-202 118 -241 141 -40 24 -76 44 -81 44 -5 0 -19 -20 -31 -45z"/>
<path d="M4248 4218 c-36 -68 -183 -339 -328 -603 -144 -264 -283 -518 -308
-565 -25 -47 -107 -197 -182 -335 -76 -137 -149 -272 -163 -300 l-25 -50 -68
0 -68 0 -95 115 c-53 64 -143 174 -201 245 -58 71 -139 169 -180 218 -125 148
-170 211 -164 227 3 9 2 11 -4 5 -5 -5 -16 -28 -24 -50 -9 -22 -55 -123 -103
-225 -48 -102 -100 -212 -115 -245 -15 -33 -51 -109 -80 -170 -29 -60 -95
-202 -147 -315 -52 -113 -101 -218 -109 -234 -7 -16 -12 -32 -9 -36 2 -4 46
-31 97 -60 51 -29 113 -65 138 -80 25 -15 128 -76 230 -135 102 -59 209 -123
238 -142 30 -19 59 -32 65 -30 7 3 72 117 146 253 74 137 159 294 189 349 30
55 72 135 94 178 41 79 60 99 80 79 8 -8 18 -6 35 5 42 28 27 43 438 -457 115
-140 267 -327 338 -415 176 -219 204 -247 230 -239 11 4 75 39 141 79 67 39
198 116 291 170 253 146 358 212 381 237 11 13 81 136 154 273 74 138 167 311
206 385 113 210 139 250 167 250 12 0 28 -5 35 -12 9 -9 13 -7 18 5 10 27 31
20 55 -20 29 -48 226 -332 246 -354 10 -12 22 -15 41 -10 25 7 28 13 35 76 4
37 6 273 5 524 l-3 456 -29 -45 c-17 -25 -87 -151 -157 -280 -70 -129 -134
-247 -142 -261 -12 -22 -24 -27 -68 -32 -42 -4 -59 -2 -77 11 -12 9 -138 188
-280 397 -142 209 -283 416 -313 460 -30 44 -125 181 -210 304 -317 461 -355
515 -366 518 -6 2 -40 -51 -75 -119z"/>
<path d="M5554 2525 c-4 -11 -47 -90 -94 -175 -48 -85 -121 -218 -162 -295
-41 -77 -95 -175 -118 -218 l-43 -79 34 17 c19 10 126 72 239 138 113 66 252
148 309 181 57 34 103 66 102 71 -1 8 -178 267 -245 360 l-14 20 -8 -20z"/>
<path d="M3159 2227 c-7 -18 -109 -209 -227 -426 -164 -303 -211 -396 -200
-403 7 -4 155 -91 329 -193 173 -101 368 -216 434 -254 65 -39 124 -71 131
-71 13 0 51 21 271 151 72 43 148 85 167 93 20 8 36 17 36 20 0 11 -430 541
-695 856 -39 47 -102 122 -139 167 -38 45 -74 84 -81 87 -8 3 -18 -8 -26 -27z"/>
</g>
</svg>
